<svg id="svg" version="1.1" xmlns="http://www.w3.org/2000/svg" xmlns:xlink="http://www.w3.org/1999/xlink" width="400" height="79.94114762138302" viewBox="0, 0, 400,79.94114762138302"><g id="svgg"><path id="path0" d="M104.333 39.917 L 104.333 60.167 108.750 60.167 L 113.167 60.167 113.167 43.667 L 113.167 27.167 121.727 27.167 C 132.034 27.167,132.674 27.257,134.429 28.962 C 136.653 31.121,136.457 35.790,134.059 37.798 C 132.552 39.060,131.772 39.205,125.833 39.326 C 118.273 39.480,117.584 39.918,117.378 44.693 L 117.287 46.804 120.768 46.860 C 123.084 46.898,124.362 46.984,124.583 47.117 C 124.767 47.227,125.194 47.440,125.533 47.590 C 126.331 47.944,127.105 48.780,129.692 52.083 C 130.338 52.908,131.078 53.846,131.336 54.167 C 131.594 54.487,132.086 55.125,132.429 55.583 C 132.772 56.042,133.097 56.454,133.152 56.500 C 133.207 56.546,133.474 56.883,133.746 57.250 C 134.018 57.617,134.375 58.064,134.540 58.244 C 134.706 58.424,135.083 58.928,135.379 59.364 L 135.917 60.158 141.375 60.162 C 144.377 60.165,146.833 60.124,146.833 60.072 C 146.833 59.982,144.858 57.374,144.381 56.833 C 144.259 56.696,143.845 56.171,143.459 55.667 C 143.074 55.163,142.715 54.712,142.662 54.667 C 142.609 54.621,142.345 54.283,142.075 53.917 C 141.804 53.550,141.483 53.145,141.361 53.016 C 141.239 52.888,140.856 52.400,140.509 51.933 C 140.008 51.257,137.774 48.419,136.623 46.995 C 134.948 44.924,134.962 45.034,136.333 44.754 C 138.290 44.355,142.833 41.260,142.833 40.326 C 142.833 40.252,142.932 40.091,143.052 39.970 C 144.314 38.702,145.173 34.403,144.757 31.441 C 143.864 25.075,140.053 21.146,133.583 19.920 C 132.458 19.706,130.070 19.667,118.292 19.667 L 104.333 19.667 104.333 39.917 M167.167 39.917 L 167.167 60.167 171.583 60.167 L 176.000 60.167 176.000 39.917 L 176.000 19.667 171.583 19.667 L 167.167 19.667 167.167 39.917 M194.918 20.004 C 194.977 20.189,195.701 21.745,196.527 23.462 C 198.072 26.672,198.816 28.226,200.538 31.833 C 201.085 32.979,201.891 34.667,202.331 35.583 C 202.770 36.500,203.505 38.037,203.964 39.000 C 204.423 39.962,205.248 41.688,205.796 42.833 C 206.345 43.979,207.222 45.817,207.746 46.917 C 208.270 48.017,209.059 49.667,209.499 50.583 C 209.940 51.500,210.762 53.225,211.326 54.417 C 211.889 55.608,212.741 57.388,213.217 58.371 L 214.083 60.159 218.833 60.161 L 223.583 60.162 224.035 59.206 C 224.283 58.680,225.098 56.975,225.844 55.417 C 226.591 53.858,227.561 51.833,227.998 50.917 C 228.436 50.000,229.244 48.313,229.794 47.167 C 230.344 46.021,231.150 44.333,231.585 43.417 C 232.691 41.086,234.207 37.912,235.246 35.750 C 236.823 32.469,237.556 30.933,240.537 24.667 C 240.908 23.887,241.528 22.613,241.914 21.833 C 242.301 21.054,242.672 20.248,242.737 20.042 L 242.856 19.667 238.131 19.667 L 233.407 19.667 232.841 20.875 C 232.529 21.540,231.942 22.796,231.535 23.667 C 231.127 24.537,230.509 25.850,230.161 26.583 C 229.813 27.317,229.222 28.573,228.847 29.375 C 228.473 30.177,227.874 31.452,227.517 32.208 C 227.159 32.965,226.568 34.221,226.203 35.000 C 225.839 35.779,225.186 37.167,224.752 38.083 C 224.319 39.000,223.756 40.200,223.502 40.750 C 223.247 41.300,222.723 42.425,222.336 43.250 C 221.950 44.075,221.335 45.387,220.970 46.167 C 219.297 49.739,218.922 50.500,218.833 50.500 C 218.742 50.500,218.177 49.354,216.606 45.987 C 216.197 45.109,215.528 43.684,215.121 42.821 C 214.714 41.957,214.172 40.800,213.918 40.250 C 213.664 39.700,213.137 38.575,212.747 37.750 C 212.357 36.925,211.770 35.673,211.442 34.968 C 211.114 34.263,210.551 33.063,210.190 32.301 C 208.445 28.620,205.655 22.687,204.660 20.542 L 204.255 19.667 199.533 19.667 C 194.870 19.667,194.812 19.671,194.918 20.004 M261.667 39.917 L 261.667 60.167 266.167 60.167 L 270.667 60.167 270.667 39.917 L 270.667 19.667 266.167 19.667 L 261.667 19.667 261.667 39.917 M307.269 23.709 C 306.179 25.931,304.032 30.300,302.498 33.417 C 300.964 36.533,298.620 41.296,297.290 44.000 C 295.960 46.704,293.645 51.392,292.146 54.417 C 290.647 57.442,289.395 59.973,289.363 60.042 C 289.331 60.110,291.487 60.167,294.153 60.167 C 297.005 60.167,299.000 60.103,299.000 60.013 C 299.000 59.928,299.640 58.541,300.421 56.931 C 301.960 53.761,302.525 53.021,303.948 52.315 L 304.750 51.917 313.042 51.865 C 318.863 51.829,321.333 51.760,321.333 51.633 C 321.333 51.533,321.064 50.881,320.734 50.184 C 318.103 44.617,318.083 44.605,311.292 44.532 C 308.656 44.504,306.500 44.455,306.500 44.423 C 306.500 44.390,306.681 44.001,306.902 43.557 C 307.278 42.803,308.903 39.441,310.756 35.583 C 312.884 31.155,313.835 29.221,313.934 29.122 C 314.038 29.018,314.443 29.802,316.625 34.333 C 318.121 37.441,320.036 41.400,321.582 44.583 C 322.339 46.142,323.354 48.242,323.837 49.250 C 324.320 50.258,325.550 52.808,326.570 54.917 C 327.590 57.025,328.573 59.068,328.754 59.456 L 329.083 60.163 333.792 60.165 C 336.434 60.166,338.500 60.102,338.500 60.018 C 338.500 59.937,338.247 59.355,337.938 58.727 C 334.532 51.801,331.809 46.269,329.416 41.417 C 327.834 38.208,325.325 33.108,323.839 30.083 C 322.353 27.058,320.599 23.496,319.940 22.167 L 318.742 19.750 313.996 19.709 L 309.250 19.667 307.269 23.709 M357.333 39.917 L 357.333 60.167 361.583 60.167 L 365.833 60.167 365.833 45.293 L 365.833 30.420 366.212 30.835 C 366.421 31.063,367.097 31.887,367.715 32.667 C 368.332 33.446,368.970 34.233,369.132 34.417 C 369.295 34.600,369.986 35.462,370.668 36.333 C 371.351 37.204,371.952 37.954,372.005 38.000 C 372.058 38.046,372.547 38.644,373.092 39.330 C 373.637 40.015,374.196 40.717,374.333 40.890 C 374.471 41.063,374.661 41.289,374.756 41.394 C 374.851 41.498,375.375 42.146,375.922 42.833 C 376.468 43.521,376.953 44.121,377.000 44.167 C 377.072 44.238,378.662 46.208,379.284 46.996 C 379.868 47.737,381.431 49.669,381.916 50.250 C 382.221 50.617,383.156 51.779,383.993 52.833 C 384.830 53.887,385.730 55.012,385.993 55.333 C 386.256 55.654,386.894 56.442,387.410 57.083 C 388.735 58.730,389.252 59.361,389.628 59.792 C 389.954 60.165,389.978 60.167,394.978 60.167 L 400.000 60.167 400.000 39.917 L 400.000 19.667 395.751 19.667 L 391.502 19.667 391.459 34.519 L 391.417 49.371 390.890 48.644 C 390.600 48.244,390.224 47.767,390.054 47.583 C 389.884 47.400,389.596 47.051,389.414 46.808 C 388.976 46.223,384.966 41.274,384.844 41.167 C 384.791 41.121,384.527 40.783,384.258 40.417 C 383.988 40.050,383.726 39.712,383.675 39.667 C 383.624 39.621,383.133 39.021,382.583 38.333 C 382.033 37.646,381.508 37.000,381.417 36.898 C 381.325 36.796,381.025 36.424,380.750 36.070 C 380.475 35.717,380.137 35.310,380.000 35.167 C 379.863 35.023,379.529 34.608,379.259 34.245 C 378.989 33.881,378.725 33.546,378.672 33.500 C 378.619 33.454,378.018 32.704,377.335 31.833 C 376.652 30.962,375.961 30.100,375.799 29.917 C 375.636 29.733,375.120 29.096,374.651 28.500 C 374.182 27.904,373.638 27.228,373.441 26.998 C 373.244 26.768,371.998 25.230,370.672 23.581 C 369.346 21.932,368.077 20.377,367.853 20.125 L 367.445 19.667 362.389 19.667 L 357.333 19.667 357.333 39.917 " stroke="none" fill="#fcfcfc" fill-rule="evenodd"></path><path id="path1" d="M39.417 0.099 C 36.798 0.723,35.499 1.470,32.920 3.833 C 29.953 6.552,17.275 19.195,8.332 28.352 C -0.465 37.360,-0.034 36.888,0.029 37.443 L 0.083 37.917 6.583 37.960 L 13.083 38.004 13.500 37.612 C 13.729 37.396,14.778 36.289,15.831 35.152 C 19.885 30.773,33.737 17.088,36.674 14.562 C 37.090 14.204,37.615 13.737,37.841 13.524 C 39.467 11.988,42.808 11.832,44.257 13.225 C 44.475 13.436,46.675 15.403,47.233 15.887 C 49.774 18.093,62.380 30.586,65.671 34.160 C 66.723 35.302,67.964 36.633,68.430 37.118 L 69.276 38.000 75.688 38.000 C 80.453 38.000,82.151 37.949,82.300 37.800 C 82.853 37.247,82.922 37.326,74.429 28.717 C 72.236 26.493,70.391 24.593,70.329 24.493 C 70.070 24.073,52.797 6.878,50.246 4.500 C 46.482 0.991,44.847 0.154,41.583 0.068 C 40.575 0.041,39.600 0.055,39.417 0.099 M36.424 19.540 C 27.905 27.563,18.667 37.261,18.667 38.182 C 18.667 38.346,18.592 38.527,18.500 38.583 C 18.283 38.718,18.283 41.116,18.500 41.250 C 18.592 41.307,18.667 41.487,18.667 41.651 C 18.667 42.948,37.745 62.297,38.866 62.138 L 39.250 62.083 39.298 56.250 C 39.359 48.880,39.587 49.784,37.040 47.308 C 31.938 42.350,31.035 41.383,30.758 40.578 C 30.301 39.249,30.870 38.514,36.871 32.686 C 39.614 30.022,39.359 30.977,39.298 23.583 L 39.250 17.750 38.833 17.707 C 38.504 17.673,37.998 18.058,36.424 19.540 M43.239 17.886 C 43.193 18.006,43.176 20.880,43.202 24.271 L 43.250 30.438 47.365 34.510 C 53.224 40.310,53.230 39.594,47.283 45.435 L 43.250 49.396 43.250 55.740 L 43.250 62.083 43.635 62.138 C 43.923 62.179,44.323 61.904,45.213 61.055 C 45.869 60.429,47.151 59.204,48.062 58.333 C 53.288 53.336,61.849 44.580,63.052 43.000 C 64.339 41.310,64.486 39.296,63.458 37.456 C 62.653 36.015,53.585 26.735,45.466 19.041 C 44.067 17.716,43.431 17.386,43.239 17.886 M0.208 41.941 C -0.018 42.035,-0.071 42.801,0.128 43.104 C 0.674 43.938,28.928 72.393,32.000 75.202 C 34.750 77.718,35.038 77.964,35.491 78.197 C 35.725 78.318,35.954 78.454,36.000 78.500 C 37.855 80.361,43.857 80.200,46.869 78.208 C 48.001 77.459,49.536 76.107,52.308 73.417 C 54.743 71.054,72.850 52.909,73.284 52.398 C 73.449 52.204,75.590 49.999,78.042 47.499 C 84.065 41.357,84.251 41.833,75.822 41.833 C 69.110 41.833,69.142 41.830,68.500 42.683 C 67.946 43.418,63.111 48.402,57.673 53.843 C 51.737 59.783,49.268 62.166,46.099 65.015 C 45.649 65.419,45.049 65.964,44.765 66.226 C 42.648 68.182,39.907 68.144,37.583 66.127 C 33.175 62.301,23.110 52.484,17.988 47.016 C 16.666 45.603,15.043 43.878,14.383 43.182 L 13.182 41.917 6.799 41.885 C 3.289 41.868,0.323 41.893,0.208 41.941 " stroke="none" fill="#fcb404" fill-rule="evenodd"></path></g></svg>